<svg width="24" height="24" viewBox="0 0 24 24" fill="none" xmlns="http://www.w3.org/2000/svg">
<path d="M20.999 12.0004C21.551 12.0004 22.004 11.5514 21.949 11.0024C21.7185 8.70658 20.7011 6.56111 19.0694 4.92973C17.4376 3.29835 15.2919 2.28144 12.996 2.05141C12.446 1.99641 11.998 2.44941 11.998 3.00141V11.0014C11.998 11.2666 12.1034 11.521 12.2909 11.7085C12.4785 11.8961 12.7328 12.0014 12.998 12.0014L20.999 12.0004Z" stroke="#2E2E2E" stroke-width="2" stroke-linecap="round" stroke-linejoin="round"/>
<path d="M21.2104 15.8901C20.5742 17.3946 19.5792 18.7203 18.3123 19.7514C17.0454 20.7825 15.5452 21.4875 13.9428 21.8049C12.3405 22.1222 10.6848 22.0422 9.12055 21.5719C7.55627 21.1015 6.13103 20.2551 4.96942 19.1067C3.80782 17.9583 2.94522 16.5428 2.45704 14.984C1.96886 13.4252 1.86996 11.7706 2.169 10.1647C2.46804 8.55886 3.1559 7.05071 4.17245 5.77211C5.189 4.49351 6.50329 3.4834 8.0004 2.83008" stroke="#2E2E2E" stroke-width="2" stroke-linecap="round" stroke-linejoin="round"/>
</svg>
