<svg width="512" height="512" viewBox="0 0 512 512" fill="none" xmlns="http://www.w3.org/2000/svg">
<path d="M256 504C392.967 504 504 392.967 504 256C504 119.033 392.967 8 256 8C119.033 8 8 119.033 8 256C8 392.967 119.033 504 256 504Z" fill="#E6ECFF"/>
<path d="M455.016 403.8C431.887 372.834 401.854 347.69 367.304 330.366C332.754 313.042 294.639 304.015 255.989 304.002C217.338 303.99 179.218 312.992 144.657 330.294C110.095 347.597 80.0459 372.721 56.8965 403.672C79.9275 434.78 109.927 460.06 144.49 477.482C179.054 494.905 217.218 503.987 255.924 503.999C294.63 504.012 332.801 494.955 367.375 477.554C401.949 460.153 431.965 434.894 455.016 403.8Z" fill="#4294FF"/>
<path d="M256 272C309.019 272 352 229.019 352 176C352 122.981 309.019 80 256 80C202.981 80 160 122.981 160 176C160 229.019 202.981 272 256 272Z" fill="#4294FF"/>
</svg>
