<svg width="161" height="23" viewBox="0 0 161 23" fill="none" xmlns="http://www.w3.org/2000/svg">
<path d="M21.6777 13.3223H24.3633C24.2917 14.2728 24.028 15.1159 23.5723 15.8516C23.1165 16.5807 22.4818 17.1536 21.668 17.5703C20.8542 17.987 19.8678 18.1953 18.709 18.1953C17.8171 18.1953 17.013 18.0391 16.2969 17.7266C15.5872 17.4076 14.9785 16.9551 14.4707 16.3691C13.9694 15.7767 13.5853 15.0671 13.3184 14.2402C13.0514 13.4069 12.918 12.4727 12.918 11.4375V10.3535C12.918 9.31836 13.0547 8.38411 13.3281 7.55078C13.6016 6.71745 13.9922 6.00781 14.5 5.42188C15.0143 4.82943 15.6296 4.3737 16.3457 4.05469C17.0684 3.73568 17.8757 3.57617 18.7676 3.57617C19.9264 3.57617 20.9062 3.79102 21.707 4.2207C22.5078 4.64388 23.1296 5.22656 23.5723 5.96875C24.015 6.71094 24.2819 7.5638 24.373 8.52734H21.6875C21.6354 7.92839 21.5052 7.42057 21.2969 7.00391C21.0951 6.58724 20.7891 6.27148 20.3789 6.05664C19.9753 5.83529 19.4382 5.72461 18.7676 5.72461C18.2467 5.72461 17.7878 5.82227 17.3906 6.01758C17 6.21289 16.6745 6.50586 16.4141 6.89648C16.1536 7.2806 15.9583 7.76237 15.8281 8.3418C15.6979 8.91471 15.6328 9.57878 15.6328 10.334V11.4375C15.6328 12.1602 15.6914 12.8079 15.8086 13.3809C15.9258 13.9538 16.1081 14.4388 16.3555 14.8359C16.6029 15.2331 16.9219 15.5358 17.3125 15.7441C17.7031 15.9525 18.1686 16.0566 18.709 16.0566C19.3665 16.0566 19.9004 15.9525 20.3105 15.7441C20.7272 15.5358 21.043 15.2298 21.2578 14.8262C21.4792 14.4225 21.6191 13.9212 21.6777 13.3223ZM32.7371 15.4902V7.43359H35.3348V18H32.8934L32.7371 15.4902ZM33.0691 13.3027L33.8699 13.2832C33.8699 13.9928 33.7918 14.6471 33.6355 15.2461C33.4793 15.8451 33.2352 16.3659 32.9031 16.8086C32.5776 17.2448 32.1642 17.5866 31.6629 17.834C31.1616 18.0749 30.5691 18.1953 29.8855 18.1953C29.3647 18.1953 28.8895 18.1237 28.4598 17.9805C28.0301 17.8307 27.659 17.5996 27.3465 17.2871C27.0405 16.9681 26.8029 16.5612 26.6336 16.0664C26.4643 15.5651 26.3797 14.9629 26.3797 14.2598V7.43359H28.9578V14.2793C28.9578 14.6309 28.9969 14.9238 29.075 15.1582C29.1596 15.3926 29.2736 15.5846 29.4168 15.7344C29.5665 15.8776 29.7391 15.9818 29.9344 16.0469C30.1362 16.1055 30.351 16.1348 30.5789 16.1348C31.2039 16.1348 31.6954 16.0111 32.0535 15.7637C32.4181 15.5098 32.6785 15.1712 32.8348 14.748C32.991 14.3184 33.0691 13.8366 33.0691 13.3027ZM43.6305 15.1094C43.6305 14.888 43.5719 14.6895 43.4547 14.5137C43.3375 14.3379 43.1161 14.1784 42.7906 14.0352C42.4716 13.8854 42.0029 13.7454 41.3844 13.6152C40.8375 13.498 40.3329 13.3516 39.8707 13.1758C39.4085 13 39.0113 12.7884 38.6793 12.541C38.3473 12.2871 38.0868 11.9909 37.898 11.6523C37.7158 11.3073 37.6246 10.9102 37.6246 10.4609C37.6246 10.0247 37.719 9.61458 37.9078 9.23047C38.0966 8.83984 38.3701 8.49805 38.7281 8.20508C39.0862 7.9056 39.5224 7.67122 40.0367 7.50195C40.551 7.32617 41.1305 7.23828 41.775 7.23828C42.6734 7.23828 43.4449 7.38477 44.0895 7.67773C44.7405 7.9707 45.2385 8.37435 45.5836 8.88867C45.9286 9.39648 46.1012 9.9694 46.1012 10.6074H43.523C43.523 10.3275 43.4579 10.0736 43.3277 9.8457C43.204 9.61784 43.012 9.43555 42.7516 9.29883C42.4911 9.1556 42.1624 9.08398 41.7652 9.08398C41.4072 9.08398 41.1044 9.14258 40.857 9.25977C40.6161 9.37695 40.4339 9.52995 40.3102 9.71875C40.1865 9.90755 40.1246 10.1159 40.1246 10.3438C40.1246 10.513 40.1572 10.666 40.2223 10.8027C40.2939 10.9329 40.4078 11.0534 40.5641 11.1641C40.7203 11.2747 40.9319 11.3757 41.1988 11.4668C41.4723 11.5579 41.8076 11.6458 42.2047 11.7305C42.9924 11.8867 43.6793 12.0951 44.2652 12.3555C44.8577 12.6094 45.3199 12.9479 45.652 13.3711C45.984 13.7943 46.15 14.3346 46.15 14.9922C46.15 15.4609 46.0491 15.8906 45.8473 16.2812C45.6454 16.6654 45.3525 17.0007 44.9684 17.2871C44.5842 17.5736 44.1253 17.7982 43.5914 17.9609C43.0576 18.1172 42.4553 18.1953 41.7848 18.1953C40.8147 18.1953 39.9944 18.0228 39.3238 17.6777C38.6533 17.3262 38.1454 16.8835 37.8004 16.3496C37.4553 15.8092 37.2828 15.2493 37.2828 14.6699H39.7535C39.773 15.0801 39.8837 15.4089 40.0855 15.6562C40.2874 15.9036 40.5413 16.0827 40.8473 16.1934C41.1598 16.2975 41.4885 16.3496 41.8336 16.3496C42.2242 16.3496 42.553 16.2975 42.8199 16.1934C43.0868 16.0827 43.2887 15.9362 43.4254 15.7539C43.5621 15.5651 43.6305 15.3503 43.6305 15.1094ZM53.3129 7.43359V9.28906H47.2582V7.43359H53.3129ZM48.8793 4.83594H51.4672V14.9531C51.4672 15.2656 51.5095 15.5065 51.5941 15.6758C51.6788 15.8451 51.8057 15.959 51.975 16.0176C52.1443 16.0762 52.3461 16.1055 52.5805 16.1055C52.7497 16.1055 52.906 16.0957 53.0492 16.0762C53.1924 16.0566 53.3129 16.0371 53.4105 16.0176L53.4203 17.9512C53.2055 18.0228 52.9613 18.0814 52.6879 18.127C52.421 18.1725 52.1182 18.1953 51.7797 18.1953C51.2003 18.1953 50.6924 18.0977 50.2562 17.9023C49.8201 17.7005 49.4815 17.3783 49.2406 16.9355C48.9997 16.4863 48.8793 15.8939 48.8793 15.1582V4.83594ZM54.5187 12.8242V12.6191C54.5187 11.8444 54.6294 11.1315 54.8508 10.4805C55.0721 9.82292 55.3944 9.25326 55.8176 8.77148C56.2408 8.28971 56.7583 7.91536 57.3703 7.64844C57.9823 7.375 58.6789 7.23828 59.4602 7.23828C60.2544 7.23828 60.9576 7.375 61.5695 7.64844C62.188 7.91536 62.7089 8.28971 63.132 8.77148C63.5552 9.25326 63.8775 9.82292 64.0988 10.4805C64.3202 11.1315 64.4309 11.8444 64.4309 12.6191V12.8242C64.4309 13.5924 64.3202 14.3053 64.0988 14.9629C63.8775 15.6139 63.5552 16.1836 63.132 16.6719C62.7089 17.1536 62.1913 17.528 61.5793 17.7949C60.9673 18.0618 60.2674 18.1953 59.4797 18.1953C58.6984 18.1953 57.9986 18.0618 57.3801 17.7949C56.7616 17.528 56.2408 17.1536 55.8176 16.6719C55.3944 16.1836 55.0721 15.6139 54.8508 14.9629C54.6294 14.3053 54.5187 13.5924 54.5187 12.8242ZM57.0969 12.6191V12.8242C57.0969 13.2865 57.1424 13.7194 57.2336 14.123C57.3247 14.5267 57.4647 14.8815 57.6535 15.1875C57.8423 15.4935 58.0865 15.7344 58.3859 15.9102C58.6919 16.0794 59.0565 16.1641 59.4797 16.1641C59.8964 16.1641 60.2544 16.0794 60.5539 15.9102C60.8534 15.7344 61.0975 15.4935 61.2863 15.1875C61.4816 14.8815 61.6249 14.5267 61.716 14.123C61.8072 13.7194 61.8527 13.2865 61.8527 12.8242V12.6191C61.8527 12.1634 61.8072 11.737 61.716 11.3398C61.6249 10.9362 61.4816 10.5814 61.2863 10.2754C61.0975 9.96289 60.8501 9.71875 60.5441 9.54297C60.2447 9.36068 59.8833 9.26953 59.4602 9.26953C59.0435 9.26953 58.6854 9.36068 58.3859 9.54297C58.0865 9.71875 57.8423 9.96289 57.6535 10.2754C57.4647 10.5814 57.3247 10.9362 57.2336 11.3398C57.1424 11.737 57.0969 12.1634 57.0969 12.6191ZM69.0742 9.60156V18H66.4961V7.43359H68.9277L69.0742 9.60156ZM68.6934 12.3359H67.9023C67.9023 11.6003 67.9902 10.9232 68.166 10.3047C68.3483 9.6862 68.6152 9.14909 68.9668 8.69336C69.3184 8.23112 69.7513 7.87305 70.2656 7.61914C70.7865 7.36523 71.3887 7.23828 72.0723 7.23828C72.5475 7.23828 72.9837 7.3099 73.3809 7.45312C73.778 7.58984 74.1198 7.80794 74.4062 8.10742C74.6992 8.40039 74.9238 8.78451 75.0801 9.25977C75.2363 9.72852 75.3145 10.2917 75.3145 10.9492V18H72.7363V11.2129C72.7363 10.7181 72.6647 10.3307 72.5215 10.0508C72.3848 9.77083 72.1862 9.57552 71.9258 9.46484C71.6654 9.34766 71.3529 9.28906 70.9883 9.28906C70.5846 9.28906 70.2363 9.37044 69.9434 9.5332C69.6569 9.68945 69.4193 9.90755 69.2305 10.1875C69.0482 10.4674 68.9115 10.7897 68.8203 11.1543C68.7357 11.5189 68.6934 11.9128 68.6934 12.3359ZM75.1191 11.8574L74.0547 12.0527C74.0612 11.3887 74.1523 10.7669 74.3281 10.1875C74.5039 9.60156 74.7611 9.09049 75.0996 8.6543C75.4447 8.21159 75.8711 7.86654 76.3789 7.61914C76.8932 7.36523 77.4857 7.23828 78.1562 7.23828C78.6771 7.23828 79.1458 7.31315 79.5625 7.46289C79.9857 7.60612 80.347 7.83724 80.6465 8.15625C80.946 8.46875 81.1738 8.87565 81.3301 9.37695C81.4928 9.87826 81.5742 10.4902 81.5742 11.2129V18H78.9766V11.2031C78.9766 10.6888 78.9049 10.2949 78.7617 10.0215C78.625 9.74805 78.4264 9.55924 78.166 9.45508C77.9056 9.3444 77.5996 9.28906 77.248 9.28906C76.89 9.28906 76.5775 9.35742 76.3105 9.49414C76.0501 9.62435 75.8288 9.80664 75.6465 10.041C75.4707 10.2754 75.3372 10.5488 75.2461 10.8613C75.1615 11.1673 75.1191 11.4993 75.1191 11.8574ZM95.3777 10.6465V16.1836C95.1694 16.4505 94.8406 16.7402 94.3914 17.0527C93.9487 17.3652 93.3693 17.6354 92.6531 17.8633C91.937 18.0846 91.0581 18.1953 90.0164 18.1953C89.1115 18.1953 88.2846 18.0456 87.5359 17.7461C86.7872 17.4401 86.1427 16.9941 85.6023 16.4082C85.062 15.8223 84.6453 15.1061 84.3523 14.2598C84.0594 13.4134 83.9129 12.4466 83.9129 11.3594V10.4219C83.9129 9.33464 84.0496 8.36784 84.323 7.52148C84.603 6.67513 85.0001 5.95898 85.5145 5.37305C86.0353 4.78711 86.657 4.34115 87.3797 4.03516C88.1089 3.72917 88.9227 3.57617 89.8211 3.57617C91.0255 3.57617 92.0151 3.77474 92.7898 4.17188C93.5711 4.56901 94.17 5.11589 94.5867 5.8125C95.0034 6.5026 95.2638 7.29688 95.368 8.19531H92.7508C92.6792 7.70052 92.5359 7.26758 92.3211 6.89648C92.1062 6.51888 91.8003 6.22591 91.4031 6.01758C91.0125 5.80273 90.5047 5.69531 89.8797 5.69531C89.3523 5.69531 88.8868 5.79948 88.4832 6.00781C88.0796 6.21615 87.741 6.51888 87.4676 6.91602C87.1941 7.31315 86.9858 7.80469 86.8426 8.39062C86.7059 8.97656 86.6375 9.64714 86.6375 10.4023V11.3594C86.6375 12.1211 86.7156 12.7982 86.8719 13.3906C87.0281 13.9766 87.2527 14.4714 87.5457 14.875C87.8452 15.2721 88.213 15.5749 88.6492 15.7832C89.0919 15.985 89.5932 16.0859 90.1531 16.0859C90.6609 16.0859 91.0809 16.0436 91.4129 15.959C91.7514 15.8678 92.0216 15.7604 92.2234 15.6367C92.4253 15.513 92.5815 15.3926 92.6922 15.2754V12.6094H89.8699V10.6465H95.3777ZM103.586 12.8145H99.9234V10.7051H103.586C104.185 10.7051 104.67 10.6074 105.041 10.4121C105.418 10.2103 105.695 9.93685 105.871 9.5918C106.046 9.24023 106.134 8.83984 106.134 8.39062C106.134 7.95443 106.046 7.54753 105.871 7.16992C105.695 6.79232 105.418 6.48633 105.041 6.25195C104.67 6.01758 104.185 5.90039 103.586 5.90039H100.802V18H98.1168V3.78125H103.586C104.692 3.78125 105.636 3.97982 106.418 4.37695C107.205 4.76758 107.804 5.3112 108.214 6.00781C108.631 6.69792 108.839 7.48568 108.839 8.37109C108.839 9.28906 108.631 10.0801 108.214 10.7441C107.804 11.4082 107.205 11.9193 106.418 12.2773C105.636 12.6354 104.692 12.8145 103.586 12.8145ZM117.252 3.78125V18H114.577V3.78125H117.252ZM121.666 3.78125V5.90039H110.211V3.78125H121.666Z" fill="#615EF0"/>
</svg>
