<svg width="24" height="24" viewBox="0 0 24 24" fill="none" xmlns="http://www.w3.org/2000/svg">
<path d="M13.5 3.1C13 3.1 12.5 3 12 3C11.5 3 11 3.1 10.5 3.1" stroke="#2E2E2E" stroke-width="2" stroke-linecap="round" stroke-linejoin="round"/>
<path d="M19.2992 6.8002C18.7028 6.00379 17.9956 5.29665 17.1992 4.7002" stroke="#2E2E2E" stroke-width="2" stroke-linecap="round" stroke-linejoin="round"/>
<path d="M20.9004 13.5C21.0004 13 21.0004 12.5 21.0004 12C21.0004 11.5 20.9004 11 20.9004 10.5" stroke="#2E2E2E" stroke-width="2" stroke-linecap="round" stroke-linejoin="round"/>
<path d="M17.1992 19.3002C17.9956 18.7037 18.7028 17.9966 19.2992 17.2002" stroke="#2E2E2E" stroke-width="2" stroke-linecap="round" stroke-linejoin="round"/>
<path d="M10.5 20.9004C11 21.0004 11.5 21.0004 12 21.0004C12.5 21.0004 13 20.9004 13.5 20.9004" stroke="#2E2E2E" stroke-width="2" stroke-linecap="round" stroke-linejoin="round"/>
<path d="M3.5 17.5L2 22L6.5 20.5" stroke="#2E2E2E" stroke-width="2" stroke-linecap="round" stroke-linejoin="round"/>
<path d="M3.1 10.5C3.1 11 3 11.5 3 12C3 12.5 3.1 13 3.1 13.5" stroke="#2E2E2E" stroke-width="2" stroke-linecap="round" stroke-linejoin="round"/>
<path d="M6.79922 4.7002C6.00281 5.29665 5.29567 6.00379 4.69922 6.8002" stroke="#2E2E2E" stroke-width="2" stroke-linecap="round" stroke-linejoin="round"/>
</svg>
